<?xml version="1.0" standalone="no"?>
<!DOCTYPE svg PUBLIC "-//W3C//DTD SVG 20010904//EN" "http://www.w3.org/TR/2001/REC-SVG-20010904/DTD/svg10.dtd">
<!-- Created using Karbon, part of Calligra: http://www.calligra.org/karbon -->
<svg xmlns="http://www.w3.org/2000/svg" xmlns:xlink="http://www.w3.org/1999/xlink" width="19.2pt" height="19.2pt">
<defs/>
<g id="layer0">
  <path id="shape0" transform="" fill="none" d="M0 0L24 0L24 24L0 24Z"/>
  <path id="shape1" transform="translate(2, 1.73472e-17)" fill="#f6f7fc" d="M4 18C4 18.55 4.45 19 5 19L6 19L6 22.5C6 23.33 6.67 24 7.5 24C8.33 24 9 23.33 9 22.5L9 19L11 19L11 22.5C11 23.33 11.67 24 12.5 24C13.33 24 14 23.33 14 22.5L14 19L15 19C15.55 19 16 18.55 16 18L16 8L4 8ZM1.5 8C0.67 8 0 8.67 0 9.5L0 16.5C0 17.33 0.67 18 1.5 18C2.33 18 3 17.33 3 16.5L3 9.5C3 8.67 2.33 8 1.5 8ZM18.5 8C17.67 8 17 8.67 17 9.5L17 16.5C17 17.33 17.67 18 18.5 18C19.33 18 20 17.33 20 16.5L20 9.5C20 8.67 19.33 8 18.5 8ZM13.53 2.16L14.83 0.86C15.03 0.66 15.03 0.35 14.83 0.15C14.63 -0.05 14.32 -0.05 14.12 0.15L12.64 1.63C11.85 1.23 10.95 1 10 1C9.04 1 8.14 1.23 7.34 1.63L5.85 0.15C5.65 -0.05 5.34 -0.05 5.14 0.15C4.94 0.35 4.94 0.66 5.14 0.86L6.45 2.17C4.97 3.26 4 5.01 4 7L16 7C16 5.01 15.03 3.25 13.53 2.16ZM8 5L7 5L7 4L8 4ZM13 5L12 5L12 4L13 4Z"/>
 </g>
</svg>
